<svg xmlns="http://www.w3.org/2000/svg" width="382" height="370" viewBox="0 0 382 370"><g transform="translate(-57 -51)"><g transform="translate(57 51)" fill="rgba(255,255,255,0)" stroke="rgba(44,167,248,0.1)" stroke-width="10" opacity="0.8"><rect width="120" height="120" rx="25" stroke="none"/><rect x="5" y="5" width="110" height="110" rx="20" fill="none"/></g><g transform="translate(118 191)" fill="rgba(255,255,255,0)" stroke="rgba(212,141,10,0.1)" stroke-width="7" opacity="0.4"><rect width="60" height="60" rx="16" stroke="none"/><rect x="3.5" y="3.5" width="53" height="53" rx="12.5" fill="none"/></g><g transform="translate(197 86)" fill="rgba(255,255,255,0)" stroke="rgba(7,181,131,0.1)" stroke-width="8" opacity="0.6"><rect width="80" height="80" rx="20" stroke="none"/><rect x="4" y="4" width="72" height="72" rx="16" fill="none"/></g><g transform="translate(198 186)" fill="rgba(255,255,255,0)" stroke="rgba(44,167,248,0.1)" stroke-width="9" opacity="0.2"><rect width="100" height="100" rx="22" stroke="none"/><rect x="4.5" y="4.5" width="91" height="91" rx="17.5" fill="none"/></g></g><g transform="translate(439 421) rotate(180)"><g transform="translate(57 51)" fill="rgba(255,255,255,0)" stroke="rgba(44,167,248,0.1)" stroke-width="10" opacity="0.8"><rect width="120" height="120" rx="25" stroke="none"/><rect x="5" y="5" width="110" height="110" rx="20" fill="none"/></g><g transform="translate(118 191)" fill="rgba(255,255,255,0)" stroke="rgba(212,141,10,0.1)" stroke-width="7" opacity="0.4"><rect width="60" height="60" rx="16" stroke="none"/><rect x="3.5" y="3.5" width="53" height="53" rx="12.5" fill="none"/></g><g transform="translate(197 86)" fill="rgba(255,255,255,0)" stroke="rgba(7,181,131,0.1)" stroke-width="8" opacity="0.6"><rect width="80" height="80" rx="20" stroke="none"/><rect x="4" y="4" width="72" height="72" rx="16" fill="none"/></g><g transform="translate(198 186)" fill="rgba(255,255,255,0)" stroke="rgba(44,167,248,0.1)" stroke-width="9" opacity="0.2"><rect width="100" height="100" rx="22" stroke="none"/><rect x="4.5" y="4.5" width="91" height="91" rx="17.5" fill="none"/></g></g></svg>
