<svg version="1.0" xmlns="http://www.w3.org/2000/svg"
 width="256.000000pt" height="256.000000pt" viewBox="0 0 256.000000 256.000000"
 preserveAspectRatio="xMidYMid meet">
<g transform="translate(0.000000,256.000000) scale(0.100000,-0.100000)"
fill="currentColor" stroke="none">
<path d="M555 2550 c-246 -37 -444 -201 -523 -434 l-27 -81 0 -755 0 -755 27
-80 c68 -200 234 -360 433 -417 l80 -23 735 0 735 0 80 23 c199 57 365 218
433 417 l27 80 3 695 c3 724 0 800 -39 917 -58 175 -230 338 -419 395 -75 22
-79 22 -785 24 -390 1 -733 -1 -760 -6z m1486 -204 c78 -24 127 -54 189 -116
64 -64 89 -105 114 -189 14 -48 16 -141 16 -765 0 -758 0 -747 -50 -845 -27
-54 -127 -154 -182 -182 -95 -49 -99 -49 -848 -49 -749 0 -753 0 -848 49 -55
28 -155 128 -182 182 -50 98 -50 87 -50 845 0 763 0 755 52 857 25 51 127 151
180 178 93 48 82 47 843 48 591 1 728 -2 766 -13z"/>
<path d="M1182 1954 c-151 -40 -278 -160 -322 -301 -19 -61 -20 -93 -20 -527
l0 -462 30 -29 c45 -43 101 -42 141 3 l29 32 0 185 0 185 138 0 c174 0 240 11
328 54 157 78 254 237 254 417 0 128 -49 237 -149 332 -116 111 -277 152 -429
111z m202 -206 c55 -16 138 -99 154 -154 42 -142 -26 -284 -157 -329 -32 -11
-86 -15 -194 -15 l-149 0 4 163 c3 142 6 167 25 202 27 51 88 110 133 129 43
19 128 20 184 4z"/>
</g>
</svg>
