<svg xmlns="http://www.w3.org/2000/svg" xmlns:xlink="http://www.w3.org/1999/xlink" width="32" height="32" viewBox="0 0 32 32"><defs><clipPath id="bonfire"><circle cx="16" cy="16" r="16" transform="translate(144 62)" fill="currentColor"/></clipPath></defs><g transform="translate(-144 -62)" clip-path="url(#bonfire)"><g transform="translate(142.934 60.934)"><path d="M18.225,24.558a1.227,1.227,0,0,0-1.237-1.1,1.242,1.242,0,0,0-1.213.938L14.562,30.29a2.373,2.373,0,0,0-.062.525,2.323,2.323,0,0,0,2.489,2.251,2.324,2.324,0,0,0,2.489-2.251,2.411,2.411,0,0,0-.086-.63Z" fill="currentColor"/><path d="M27.4,27.192a2.844,2.844,0,0,0-.4-.291l-4.635-3.235a.992.992,0,0,0-1.283.067.9.9,0,0,0-.133,1.146l3.5,4.6a2.533,2.533,0,0,0,.267.313,1.994,1.994,0,0,0,2.691,0A1.814,1.814,0,0,0,27.4,27.192Z" fill="currentColor"/><path d="M30.886,22.395H26.192a.571.571,0,0,0-.592.543.621.621,0,0,0,.461.611l4.429,1.37A1.31,1.31,0,0,0,32,23.78C32,22.872,31.493,22.395,30.886,22.395Z" fill="currentColor"/><path d="M8.548,22.938a.585.585,0,0,0-.63-.543H3.223a1.273,1.273,0,0,0-1.09,1.354,1.31,1.31,0,0,0,1.487,1.17l4.5-1.37A.565.565,0,0,0,8.548,22.938Z" fill="currentColor"/><path d="M11.77,23.67,7.133,26.894a2.152,2.152,0,0,0-.4.289,1.755,1.755,0,0,0,0,2.571,1.961,1.961,0,0,0,2.691,0,2.05,2.05,0,0,0,.267-.312l3.5-4.575a.873.873,0,0,0-.133-1.133,1,1,0,0,0-1.29-.063Z" fill="currentColor"/><path d="M19.564,16.159c.667-.361,1.3-.7,1.887-1.077,2.831-1.795,4.149-3.933,4.149-6.733,0-4.311-3.738-6.96-7.255-7.267a1.862,1.862,0,0,0-1.327.259,1.816,1.816,0,0,0-.41,1.273c-.092,2.241-1.892,3.933-3.8,5.724-1.867,1.753-3.8,3.566-4.181,6.067a6.833,6.833,0,0,0,2.7,6.729,2.125,2.125,0,0,0,1.287.434,2.155,2.155,0,0,0,.494-.058,2.117,2.117,0,0,0,1.418-1.13C15.517,18.353,17.574,17.238,19.564,16.159Z" fill="currentColor"/><path d="M9.321,10.438a25.354,25.354,0,0,1,2.758-2.877,13.714,13.714,0,0,0,3.1-3.591,5.865,5.865,0,0,0-3.1-.757c-1.186,0-1.359.345-1.359,1.271a3.236,3.236,0,0,1-.956,2.043,4.51,4.51,0,0,0-1.23,2.862,4.844,4.844,0,0,0,.28,1.758Q9.046,10.792,9.321,10.438Z" fill="currentColor"/><path d="M22.022,15.982c-.622.395-1.267.744-1.95,1.114-1.927,1.045-3.747,2.032-4.592,3.752-.043.088-.083.167-.125.241a.533.533,0,0,0,.259.753,6.708,6.708,0,0,0,2.594.551A7.428,7.428,0,0,0,23.424,20.3,7.163,7.163,0,0,0,25.6,15.123a5.77,5.77,0,0,0-.089-1,.533.533,0,0,0-.92-.267A11.928,11.928,0,0,1,22.022,15.982Z" fill="currentColor"/></g></g></svg>
