<svg xmlns="http://www.w3.org/2000/svg" xmlns:xlink="http://www.w3.org/1999/xlink" width="14" height="14" viewBox="0 0 14 14"><defs><clipPath id="settings"><rect width="14" height="14" transform="translate(804 1265)" fill="currentColor" stroke="currentColor" stroke-width="1"/></clipPath></defs><g transform="translate(-804 -1265)" clip-path="url(#settings)"><path d="M7.983,5.853A1.948,1.948,0,1,0,9.73,7.6,1.948,1.948,0,0,0,7.983,5.853Zm4.69,1.938a4.7,4.7,0,0,1-.047.633L14,9.5a.329.329,0,0,1,.075.418l-1.3,2.252a.329.329,0,0,1-.4.14l-1.367-.55a.49.49,0,0,0-.462.053,5.006,5.006,0,0,1-.656.382.485.485,0,0,0-.268.369l-.2,1.458a.337.337,0,0,1-.325.279H6.49a.338.338,0,0,1-.325-.27l-.2-1.455a.489.489,0,0,0-.274-.372,4.727,4.727,0,0,1-.653-.383.487.487,0,0,0-.46-.052l-1.366.55a.329.329,0,0,1-.4-.139L1.5,9.931a.329.329,0,0,1,.075-.418L2.742,8.6a.488.488,0,0,0,.183-.429c-.011-.127-.018-.254-.018-.38s.006-.252.018-.376A.487.487,0,0,0,2.74,6.99L1.578,6.077a.329.329,0,0,1-.072-.416l1.3-2.252a.329.329,0,0,1,.4-.14l1.367.55a.49.49,0,0,0,.462-.053,5.006,5.006,0,0,1,.656-.382.485.485,0,0,0,.268-.369l.2-1.458a.337.337,0,0,1,.325-.279h2.6a.338.338,0,0,1,.325.27L9.623,3a.489.489,0,0,0,.274.372,4.726,4.726,0,0,1,.653.383.487.487,0,0,0,.46.052l1.366-.55a.329.329,0,0,1,.4.139l1.3,2.252A.329.329,0,0,1,14,6.07l-1.163.913a.488.488,0,0,0-.184.429C12.666,7.538,12.673,7.664,12.673,7.791Z" transform="translate(803.209 1264.209)" fill="none" stroke="currentColor" stroke-linecap="round" stroke-linejoin="round" stroke-width="0.974"/></g></svg>
