<svg xmlns="http://www.w3.org/2000/svg" xmlns:xlink="http://www.w3.org/1999/xlink" width="14" height="14" viewBox="0 0 14 14"><defs><clipPath id="task"><rect width="14" height="14" transform="translate(54 78)" fill="currentColor" stroke="currentColor" stroke-width="1"/></clipPath></defs><g transform="translate(-54 -78)" clip-path="url(#task)"><g transform="translate(52.385 76.385)"><path d="M12.923,7.538v6.192a1.346,1.346,0,0,1-1.346,1.346H3.5a1.346,1.346,0,0,1-1.346-1.346V5.654A1.346,1.346,0,0,1,3.5,4.308H9.136" fill="none" stroke="currentColor" stroke-linecap="round" stroke-linejoin="round" stroke-width="1.077"/><path d="M15.479,1.792a.54.54,0,0,0-.781-.019l-.416.414a.269.269,0,0,0,0,.381l.382.381a.269.269,0,0,0,.382,0l.406-.4A.547.547,0,0,0,15.479,1.792Z" fill="currentColor"/><path d="M13.439,3.029,7.364,9.093a.3.3,0,0,0-.078.132l-.281.837a.132.132,0,0,0,.164.164l.836-.281a.3.3,0,0,0,.132-.078L14.2,3.791a.3.3,0,0,0,0-.426l-.335-.337a.3.3,0,0,0-.428,0Z" fill="currentColor"/></g></g></svg>
