<svg xmlns="http://www.w3.org/2000/svg" xmlns:xlink="http://www.w3.org/1999/xlink" width="32" height="32" viewBox="0 0 32 32"><defs><clipPath id="a"><rect width="32" height="32" transform="translate(154 164)" fill="currentColor" stroke="currentColor" stroke-width="1"/></clipPath></defs><g transform="translate(-154 -164)" clip-path="url(#a)"><g transform="translate(152.933 162.934)"><path d="M24.532,8.533h.006" fill="currentColor"/><path d="M31.969,6.4H25.9l.595-2.377,2.555-.87a1.089,1.089,0,0,0,.71-1.314,1.067,1.067,0,0,0-1.369-.715L25.255,2.19a1.067,1.067,0,0,0-.691.751L23.7,6.4H14.963a1.088,1.088,0,0,0-1.1,1.015,1.067,1.067,0,0,0,1.065,1.118h.183l.067.577a.553.553,0,0,0,.55.489h0a10.724,10.724,0,0,1,6.674,2.1,8.126,8.126,0,0,1,2.325,2.837,8.226,8.226,0,0,1,.675,1.967.522.522,0,0,0,.219.325,4.8,4.8,0,0,1,1.759,5.762.528.528,0,0,0-.01.369,6.4,6.4,0,0,1,.357,2.105,6.181,6.181,0,0,1-1.427,4,5.341,5.341,0,0,1-1.919,1.445.533.533,0,0,0-.281.291,7.212,7.212,0,0,1-1.158,1.991h0a.167.167,0,0,0,.127.274h3.281a3.215,3.215,0,0,0,3.19-2.943l2.28-21.587H32a1.067,1.067,0,0,0,1.067-1.118A1.088,1.088,0,0,0,31.969,6.4Z" fill="currentColor"/><path d="M7.246,21.333a1.591,1.591,0,0,1,1.133.467l1.034,1.034a.267.267,0,0,0,.377,0L10.822,21.8a1.591,1.591,0,0,1,1.133-.467h13.1A.533.533,0,0,0,25.6,20.8V20.8a2.671,2.671,0,0,0-2.133-2.613,6.07,6.07,0,0,0-2.367-4.8,8.613,8.613,0,0,0-5.366-1.653h-4.8c-4.548,0-7.628,2.585-7.733,6.453A2.671,2.671,0,0,0,1.067,20.8h0a.533.533,0,0,0,.533.533Z" fill="currentColor"/><path d="M12.4,23.466a.533.533,0,0,0-.377.156L10.542,25.1a1.333,1.333,0,0,1-1.885,0L7.181,23.622a.533.533,0,0,0-.377-.156H2.177a1.062,1.062,0,0,0-1.051.878,4.348,4.348,0,0,0-.06.722A3.513,3.513,0,0,0,4.217,28.8,5.47,5.47,0,0,0,5.361,31.43a4.543,4.543,0,0,0,3.572,1.635h8.8A4.54,4.54,0,0,0,21.3,31.429,5.47,5.47,0,0,0,22.448,28.8,3.512,3.512,0,0,0,25.6,25.064a4.348,4.348,0,0,0-.06-.722,1.062,1.062,0,0,0-1.051-.877Z" fill="currentColor"/></g></g></svg>