<svg xmlns="http://www.w3.org/2000/svg" xmlns:xlink="http://www.w3.org/1999/xlink" width="20" height="20" viewBox="0 0 20 20"><defs><clipPath id="volume-on"><rect width="20" height="20" transform="translate(270 472)" fill="currentColor" stroke="currentColor" stroke-width="1"/></clipPath></defs><g transform="translate(-270 -472)" clip-path="url(#volume-on)"><g transform="translate(268.571 470.57)"><path d="M5.625,8.571H2.5a.357.357,0,0,0-.357.357v5a.357.357,0,0,0,.357.357H5.609a.711.711,0,0,1,.453.158l4.083,3.343a.357.357,0,0,0,.569-.287V5.357a.357.357,0,0,0-.569-.287L6.062,8.413a.67.67,0,0,1-.437.158Z" fill="none" stroke="currentColor" stroke-linecap="round" stroke-linejoin="round" stroke-width="1.429"/><path d="M14.286,14.286A6.333,6.333,0,0,0,15,11.429a6.17,6.17,0,0,0-.714-2.857" fill="none" stroke="currentColor" stroke-linecap="round" stroke-linejoin="round" stroke-width="1.429"/><path d="M16.429,16.429a9.106,9.106,0,0,0,1.429-5,8.955,8.955,0,0,0-1.429-5" fill="none" stroke="currentColor" stroke-linecap="round" stroke-linejoin="round" stroke-width="1.429"/><path d="M18.571,18.571a12.046,12.046,0,0,0,2.143-7.143,12.146,12.146,0,0,0-2.143-7.143" fill="none" stroke="currentColor" stroke-linecap="round" stroke-linejoin="round" stroke-width="1.429"/></g></g></svg>