<svg xmlns="http://www.w3.org/2000/svg" xmlns:xlink="http://www.w3.org/1999/xlink" width="256" height="256" viewBox="0 0 256 256">
  <defs>
    <linearGradient id="linear-gradient" x1="0.5" x2="0.5" y2="1" gradientUnits="objectBoundingBox">
      <stop offset="0" stop-color="#343e45"/>
      <stop offset="1" stop-color="#222c33"/>
    </linearGradient>
    <clipPath id="clip-path">
      <rect id="Rectangle_1489" data-name="Rectangle 1489" width="180" height="180" transform="translate(0.219 0.219)" fill="#90caf9" stroke="#707070" stroke-width="1"/>
    </clipPath>
  </defs>
  <g id="icon" transform="translate(-717 -216)">
    <g id="Rectangle_1491" data-name="Rectangle 1491" transform="translate(717 216)" stroke="#364047" stroke-width="1" fill="url(#linear-gradient)">
      <rect width="256" height="256" rx="30" stroke="none"/>
      <rect x="0.5" y="0.5" width="255" height="255" rx="29.5" fill="none"/>
    </g>
    <g id="Mask_Group_15" data-name="Mask Group 15" transform="translate(754.781 253.781)" clip-path="url(#clip-path)">
      <g id="ios-timer" transform="translate(-0.026 -0.048)">
        <path id="Path_47" data-name="Path 47" d="M112.668,202.936A90.269,90.269,0,0,1,50.022,47.675,7.246,7.246,0,0,1,60.087,58.1a75.756,75.756,0,1,0,59.8-20.852V65.5a7.267,7.267,0,1,1-14.533,0V29.667a7.262,7.262,0,0,1,7.267-7.267,90.268,90.268,0,0,1,.045,180.536Z" transform="translate(-22.4 -22.4)" fill="#90caf9"/>
        <path id="Path_48" data-name="Path 48" d="M71.175,64.856l44.908,32.271a13.589,13.589,0,0,1-15.8,22.116,13.121,13.121,0,0,1-3.159-3.159L64.856,71.175a4.528,4.528,0,0,1,6.319-6.319Z" transform="translate(-17.059 -17.06)" fill="#90caf9"/>
      </g>
    </g>
  </g>
</svg>
