<svg xmlns="http://www.w3.org/2000/svg" xmlns:xlink="http://www.w3.org/1999/xlink" width="256" height="256" viewBox="0 0 256 256"><defs><linearGradient id="a" x1="0.5" x2="0.5" y2="1" gradientUnits="objectBoundingBox"><stop offset="0" stop-color="#343e45"/><stop offset="1" stop-color="#222c33"/></linearGradient></defs><g transform="translate(-691 -339)"><rect width="256" height="256" rx="30" transform="translate(691 339)" fill="#90caf9"/><rect width="236" height="236" rx="25" transform="translate(701 349)" fill="url(#a)"/><g transform="translate(152.402 0.95)"><path d="M17.354,17.128c1.822-2.183,3.758-4.318,5.818-6.378s4.185-3.986,6.359-5.818c1.452-1.224,5.723-2.221,8.428.484S53.6,21.048,53.6,21.048a87.972,87.972,0,0,0-10.962,9.168,86.619,86.619,0,0,0-9.168,10.962S20.533,28.251,17.838,25.546c-2.714-2.714-1.718-6.976-.484-8.418ZM103.7,168.172Z" transform="translate(564.488 388.159)" fill="#90caf9"/><path d="M53.879,64.014c-4.242,2.61,11.36,40.259,15.166,46.39A11.446,11.446,0,0,0,88.53,98.39C84.762,92.24,58.112,61.4,53.879,64.014ZM50.7,22.8a85.148,85.148,0,0,1,56.166,0c3.122,1.082,7.26-1.091,5.429-5.8-1.338-3.417-2.629-6.757-3.151-8.115-1.243-3.217-5.694-5.875-7.63-6.311a101.768,101.768,0,0,0-45.47,0c-1.936.437-6.378,3.094-7.621,6.311C47.9,10.24,46.6,13.581,45.271,17c-1.832,4.707,2.306,6.89,5.429,5.8Zm114.429,7.441c-1.822-2.183-3.758-4.318-5.818-6.378s-4.185-3.986-6.359-5.818c-1.452-1.224-5.723-2.221-8.428.484s-15.641,15.631-15.641,15.631a87.971,87.971,0,0,1,10.962,9.168,86.619,86.619,0,0,1,9.168,10.962s12.936-12.926,15.631-15.631c2.714-2.714,1.718-6.976.484-8.418ZM78.783,27.523A76.879,76.879,0,1,0,155.657,104.4,76.87,76.87,0,0,0,78.783,27.523Zm0,134.777a57.893,57.893,0,1,1,57.9-57.893A57.9,57.9,0,0,1,78.783,162.3Z" transform="translate(586.837 375.05)" fill="#90caf9"/></g></g></svg>