<svg aria-hidden="true" style="position: absolute; width: 0; height: 0; overflow: hidden;" version="1.1" xmlns="http://www.w3.org/2000/svg" xmlns:xlink="http://www.w3.org/1999/xlink">
<defs>
<symbol id="icon-minimize" viewBox="0 0 14 14">
<title>icon-minimize</title>
<g class="b" transform="translate(-253 -75)"><g class="a" transform="translate(253 81)"><rect class="c" width="14" height="2"/><rect class="d" x="0.5" y="0.5" width="13" height="1"/></g></g>
</symbol>

<symbol id="icon-exit" viewBox="0 0 14 14">
<title>icon-exit</title>
<defs><clipPath id="a"><rect class="a" width="14" height="14" transform="translate(253 75)"/></clipPath></defs><g class="b" transform="translate(-253 -75)"><path class="c" d="M19.745,7.145l-1.4-1.4-5.6,5.6-5.6-5.6-1.4,1.4,5.6,5.6-5.6,5.6,1.4,1.4,5.6-5.6,5.6,5.6,1.4-1.4-5.6-5.6Z" transform="translate(247.255 69.255)"/></g>
</symbol>

<symbol id="icon-reset"  width="24" height="18" viewBox="0 0 24 18">
<title>icon-reset</title>
<defs><clipPath id="a"><rect class="a" width="24" height="18" transform="translate(42 539)"/></clipPath></defs><g class="b" transform="translate(-42 -539)"><path class="c" d="M14.455,21.2a6.75,6.75,0,0,1,0-13.5A6.539,6.539,0,0,1,19.18,9.73l-3.6,3.6h7.875V5.455L20.811,8.1a8.988,8.988,0,1,0,2.306,8.811h-2.38A6.7,6.7,0,0,1,14.455,21.2Z" transform="translate(39.545 533.545)"/></g>
</symbol>

<symbol id="icon-next" width="24" height="18" viewBox="0 0 24 18">
<title>icon-next</title>
<defs><clipPath id="a"><rect class="a" width="24" height="18" transform="translate(296 544)"/></clipPath></defs><g class="b" transform="translate(-296 -544)"><path class="c" d="M4,4V22l13-9ZM19,4h3V22H19Z" transform="translate(295 540)"/></g>
</symbol>

<symbol id="icon-volume-on" width="24" height="18" viewBox="0 0 24 18">
<title>icon-volume-on</title>
<defs><clipPath id="a"><rect class="a" width="24" height="18" transform="translate(336 544)"/></clipPath></defs><g class="b" transform="translate(-336 -544)"><path class="c" d="M4,10v6H8l5,5.229V4.771L8,10Zm13.5,3A4.673,4.673,0,0,0,15,8.835v8.28A4.537,4.537,0,0,0,17.5,13ZM15,4V6.108a7.249,7.249,0,0,1,0,13.783V22A9.286,9.286,0,0,0,15,4Z" transform="translate(335 540)"/></g>
</symbol>

<symbol id="icon-volume-off"  width="24" height="18" viewBox="0 0 24 18">
<title>icon-volume-off</title>
<defs><clipPath id="a"><path class="a" d="M0,0H24V18H0Z" transform="translate(308 523)"/></clipPath></defs><g class="b" transform="translate(-308 -523)"><g transform="translate(308 520)"><path class="c" d="M19.008,12a7.318,7.318,0,0,1-.638,2.993l1.494,1.494A9.342,9.342,0,0,0,21,12a9.208,9.208,0,0,0-6.984-9V5.108A7.152,7.152,0,0,1,19.008,12ZM12,3.771,9.608,6.231,12,8.623ZM19.727,18.6,4.271,3.148,3.146,4.273,7.388,8.511,7,9H3v6H7l5,5.229v-7.1l4.449,4.438a6.939,6.939,0,0,1-2.434,1.328V21a8.815,8.815,0,0,0,3.859-2.007l1.857,1.861,1.125-1.127L19.731,18.6l0,0Z"/><path class="c" d="M16.509,12a4.667,4.667,0,0,0-2.493-4.165v2.8L16.4,13.02A4.716,4.716,0,0,0,16.509,12Z"/></g></g>
</symbol>

<symbol id="icon-play" width="32" height="32" viewBox="0 0 32 32">
<title>icon-play</title>
<defs><clipPath id="a"><rect class="a" width="32" height="32" transform="translate(320 448)"/></clipPath></defs><g class="b" transform="translate(-320 -448)"><path class="c" d="M7.529,4.078v32l25.1-16Z" transform="translate(318.922 443.922)"/></g>
</symbol>

<symbol id="icon-pause" width="32" height="32" viewBox="0 0 32 32">
<title>icon-pause</title>
<defs><clipPath id="a"><rect class="a" width="32" height="32" transform="translate(308 444)"/></clipPath></defs><g class="b" transform="translate(-308 -444)"><path class="c" d="M8,37.333h8.892v-32H8Zm17.775-32v32h8.892v-32Z" transform="translate(302.667 438.667)"/></g>
</symbol>
</defs>
</svg>