<svg xmlns="http://www.w3.org/2000/svg" xmlns:xlink="http://www.w3.org/1999/xlink" width="24" height="18" viewBox="0 0 24 18"><defs><style>.a,.c{fill:#54595a;}.a{stroke:#707070;}.b{clip-path:url(#a);}</style><clipPath id="a"><path class="a" d="M0,0H24V18H0Z" transform="translate(308 523)"/></clipPath></defs><g class="b" transform="translate(-308 -523)"><g transform="translate(308 520)"><path class="c" d="M19.008,12a7.318,7.318,0,0,1-.638,2.993l1.494,1.494A9.342,9.342,0,0,0,21,12a9.208,9.208,0,0,0-6.984-9V5.108A7.152,7.152,0,0,1,19.008,12ZM12,3.771,9.608,6.231,12,8.623ZM19.727,18.6,4.271,3.148,3.146,4.273,7.388,8.511,7,9H3v6H7l5,5.229v-7.1l4.449,4.438a6.939,6.939,0,0,1-2.434,1.328V21a8.815,8.815,0,0,0,3.859-2.007l1.857,1.861,1.125-1.127L19.731,18.6l0,0Z"/><path class="c" d="M16.509,12a4.667,4.667,0,0,0-2.493-4.165v2.8L16.4,13.02A4.716,4.716,0,0,0,16.509,12Z"/></g></g></svg>