<svg xmlns="http://www.w3.org/2000/svg" xmlns:xlink="http://www.w3.org/1999/xlink" width="32" height="32" viewBox="0 0 32 32"><defs><clipPath id="a"><rect width="32" height="32" transform="translate(156 82)" fill="currentColor" stroke="currentColor" stroke-width="1"/></clipPath></defs><g transform="translate(-156 -82)" clip-path="url(#a)"><g transform="translate(152.308 78.923)"><path d="M33.231,4.923H7.385A1.231,1.231,0,0,0,6.154,6.154V20.923a7.393,7.393,0,0,0,7.385,7.385h8.615a7.393,7.393,0,0,0,7.385-7.385V14.769h1.385A4.775,4.775,0,0,0,35.692,10V7.385A2.462,2.462,0,0,0,33.231,4.923Zm0,5.077a2.308,2.308,0,0,1-2.308,2.308H29.538V7.385h3.692Z" fill="currentColor"/><path d="M30.769,30.769H4.923a1.231,1.231,0,1,0,0,2.462H30.769a1.231,1.231,0,0,0,0-2.462Z" fill="currentColor"/></g></g></svg>
