<svg xmlns="http://www.w3.org/2000/svg" xmlns:xlink="http://www.w3.org/1999/xlink" width="20" height="20" viewBox="0 0 32 32"><g id="Fullscreen_1_"><path stroke-width="1" d="M31,18c-0.509,0-1,0.438-1,1v11H2V2h11c0.531,0,1-0.469,1-1c0-0.531-0.5-1-1-1H2C0.895,0,0,0.895,0,2v28c0,1.105,0.895,2,2,2h28c1.105,0,2-0.895,2-2V18.985C32,18.431,31.594,18,31,18z" fill="currentColor"/><path stroke-width="1" d="M31,0H21c-0.552,0-1,0.448-1,1c0,0.552,0.448,1,1,1h7.596L8.282,22.313c-0.388,0.388-0.388,1.017,0,1.405c0.388,0.388,1.017,0.388,1.404,0L30,3.404V11c0,0.552,0.448,1,1,1s1-0.448,1-1V1v0C32,0.462,31.538,0,31,0z" fill="currentColor"/></g></svg>
