<svg xmlns="http://www.w3.org/2000/svg" xmlns:xlink="http://www.w3.org/1999/xlink" width="32" height="32" viewBox="0 0 32 32"><defs><clipPath id="a"><rect width="32" height="32" transform="translate(154 123)" fill="currentColor" stroke="currentColor" stroke-width="1"/></clipPath></defs><g transform="translate(-154 -123)" clip-path="url(#a)"><path d="M29.369,6.961A16.121,16.121,0,0,0,18.286,2.286,16.121,16.121,0,0,0,7.2,6.961,15.759,15.759,0,0,0,2.286,18.286c0,1.905.625,4.364,2.349,8.968s5.151,6.532,6.6,6.847a6.57,6.57,0,0,0,1.338.185,4.29,4.29,0,0,0,2.143-.571l1-.571a2.262,2.262,0,0,0,.771-3.1l-6.209-10.9a2.266,2.266,0,0,0-3.112-.84l-.978.571a4.035,4.035,0,0,0-1,.828.286.286,0,0,1-.5-.143,8.191,8.191,0,0,1-.116-1.279A13.486,13.486,0,0,1,8.8,8.6a13.823,13.823,0,0,1,9.489-4.028A13.823,13.823,0,0,1,27.774,8.6,13.486,13.486,0,0,1,32,18.286a8.191,8.191,0,0,1-.12,1.279.286.286,0,0,1-.5.143,4.035,4.035,0,0,0-1-.828l-.978-.571a2.266,2.266,0,0,0-3.112.84l-6.2,10.9a2.262,2.262,0,0,0,.771,3.1l1,.571A4.29,4.29,0,0,0,24,34.286a6.569,6.569,0,0,0,1.338-.185c1.448-.315,4.876-2.244,6.6-6.847s2.349-7.063,2.349-8.968A15.759,15.759,0,0,0,29.369,6.961Z" transform="translate(151.714 120.714)" fill="currentColor"/></g></svg>
