<svg xmlns="http://www.w3.org/2000/svg" xmlns:xlink="http://www.w3.org/1999/xlink" width="20" height="20" viewBox="0 0 20 20"><defs><clipPath id="volume-mute"><rect width="20" height="20" transform="translate(208 94)" fill="currentColor" stroke="currentColor" stroke-width="1"/></clipPath></defs><g transform="translate(-208 -94)" clip-path="url(#volume-mute)"><g transform="translate(206.571 92.571)"><line x1="15.714" y1="15.714" transform="translate(2.857 3.571)" fill="none" stroke="currentColor" stroke-linecap="round" stroke-miterlimit="10" stroke-width="1.429"/><path d="M10,6.113V7.621a.179.179,0,0,0,.052.126l1.071,1.071a.179.179,0,0,0,.3-.126V5.383a1.1,1.1,0,0,0-.566-.97,1.067,1.067,0,0,0-1.141.082l-.029.023L8.267,5.685a.179.179,0,0,0-.013.264l.761.762a.179.179,0,0,0,.24.012Z" fill="currentColor"/><path d="M10,16.745,6.515,13.891a1.429,1.429,0,0,0-.905-.32H2.857V9.286H5.121a.179.179,0,0,0,.126-.3L4.176,7.909a.179.179,0,0,0-.126-.052H2.5A1.071,1.071,0,0,0,1.429,8.929v5A1.071,1.071,0,0,0,2.5,15H5.614l4.079,3.339.029.023a1.068,1.068,0,0,0,1.154.075,1.093,1.093,0,0,0,.552-.962v-2.24a.179.179,0,0,0-.052-.126L10.3,14.038a.179.179,0,0,0-.3.126ZM5.617,15Z" fill="currentColor"/><path d="M15.714,11.429a6.861,6.861,0,0,0-.792-3.182.714.714,0,1,0-1.272.649,5.465,5.465,0,0,1,.636,2.533q0,.179-.014.363a.357.357,0,0,0,.1.279l.878.878a.179.179,0,0,0,.3-.089,6.558,6.558,0,0,0,.16-1.431Z" fill="currentColor"/><path d="M18.571,11.429a9.681,9.681,0,0,0-1.526-5.36.714.714,0,1,0-1.234.72,8.292,8.292,0,0,1,1.331,4.64,8.11,8.11,0,0,1-.418,2.708.357.357,0,0,0,.085.369l.749.748a.179.179,0,0,0,.291-.057A9.333,9.333,0,0,0,18.571,11.429Z" fill="currentColor"/><path d="M21.429,11.429A12.8,12.8,0,0,0,19.174,3.9a.715.715,0,0,0-1.205.769A11.49,11.49,0,0,1,20,11.429a11.23,11.23,0,0,1-1.053,5.045.179.179,0,0,0,.034.2l.8.8a.179.179,0,0,0,.286-.045A12.529,12.529,0,0,0,21.429,11.429Z" fill="currentColor"/></g></g></svg>